<svg width="33" height="24" viewBox="0.77 5.02 32.46 23.60" xmlns="http://www.w3.org/2000/svg" xmlns:xlink="http://www.w3.org/1999/xlink" xml:space="preserve" overflow="hidden"><g transform="translate(-772 -325)"><path d="M779.792 343.594C779.792 337.041 785.103 331.729 791.656 331.729 798.209 331.729 803.521 337.041 803.521 343.593 803.521 346.758 802.257 349.791 800.009 352.019 799.87 352.157 799.87 352.381 800.007 352.52 800.145 352.659 800.369 352.66 800.508 352.522 805.439 347.633 805.474 339.673 800.585 334.742 795.696 329.811 787.735 329.776 782.804 334.665 780.423 337.026 779.083 340.24 779.083 343.594L779.083 345.032C779.083 345.034 779.082 345.036 779.08 345.036 779.079 345.035 779.078 345.035 779.077 345.034L774.375 340.333C774.237 340.194 774.013 340.194 773.874 340.333 773.736 340.471 773.736 340.695 773.875 340.834L779.187 346.146C779.325 346.284 779.55 346.284 779.688 346.146L785 340.834C785.139 340.695 785.139 340.471 785.001 340.333 784.862 340.194 784.638 340.194 784.5 340.333L779.798 345.034C779.796 345.036 779.794 345.036 779.793 345.034 779.792 345.034 779.792 345.033 779.792 345.032Z" stroke="#ffffff" stroke-width="0.612613"/></g></svg>